X Lossless Decoder version 20110502 (132.0)

XLD extraction logfile from 2011-05-03 22:44:40 +0900

いまみちともたか / スローライド

Used drive : MATSHITA DVD-R   UJ-868 (revision KB19)

Ripper mode             : CDParanoia III 10.2
Disable audio cache     : OK for the drive with a cache less than 2750KiB
Make use of C2 pointers : NO
Read offset correction  : 102
Max retry count         : 100
Gap status              : Analyzed, Appended

TOC of the extracted CD
     Track |   Start  |  Length  | Start sector | End sector 
    ---------------------------------------------------------
        1  | 00:00:00 | 03:16:00 |         0    |    14699   
        2  | 03:16:00 | 03:08:00 |     14700    |    28799   
        3  | 06:24:00 | 04:12:01 |     28800    |    47700   
        4  | 10:36:01 | 03:15:15 |     47701    |    62340   
        5  | 13:51:16 | 03:57:01 |     62341    |    80116   
        6  | 17:48:17 | 04:03:16 |     80117    |    98357   

AccurateRip Summary
    Disc not found in AccurateRip DB.

All Tracks
    Filename : /Users/m4c/Public/flac/スローライド.flac
    CRC32 hash             : FB9B6913
    CRC32 hash (skip zero) : 4030AD74
    Statistics
        Read error                           : 0
        Skipped (treated as error)           : 0
        Edge jitter error (maybe fixed)      : 0
        Atom jitter error (maybe fixed)      : 0
        Drift error (maybe fixed)            : 0
        Dropped bytes error (maybe fixed)    : 0
        Duplicated bytes error (maybe fixed) : 0

Track 01
    Pre-gap length : 00:02:00

    CRC32 hash             : 40A87BA6
    CRC32 hash (skip zero) : 5FBC6EBD
    AccurateRip signature  : EDCA957C
        ->Track not present in AccurateRip database.
    Statistics
        Read error                           : 0
        Skipped (treated as error)           : 0
        Edge jitter error (maybe fixed)      : 0
        Atom jitter error (maybe fixed)      : 0
        Drift error (maybe fixed)            : 0
        Dropped bytes error (maybe fixed)    : 0
        Duplicated bytes error (maybe fixed) : 0

Track 02
    Pre-gap length : 00:01:45

    CRC32 hash             : AAE8D12A
    CRC32 hash (skip zero) : 856C8427
    AccurateRip signature  : 3095F375
        ->Track not present in AccurateRip database.
    Statistics
        Read error                           : 0
        Skipped (treated as error)           : 0
        Edge jitter error (maybe fixed)      : 0
        Atom jitter error (maybe fixed)      : 0
        Drift error (maybe fixed)            : 0
        Dropped bytes error (maybe fixed)    : 0
        Duplicated bytes error (maybe fixed) : 0

Track 03
    Pre-gap length : 00:01:45

    CRC32 hash             : E228418F
    CRC32 hash (skip zero) : 134CF388
    AccurateRip signature  : F7C2CC15
        ->Track not present in AccurateRip database.
    Statistics
        Read error                           : 0
        Skipped (treated as error)           : 0
        Edge jitter error (maybe fixed)      : 0
        Atom jitter error (maybe fixed)      : 0
        Drift error (maybe fixed)            : 0
        Dropped bytes error (maybe fixed)    : 0
        Duplicated bytes error (maybe fixed) : 0

Track 04
    Pre-gap length : 00:01:45

    CRC32 hash             : F17BFBAC
    CRC32 hash (skip zero) : D6EA2CEC
    AccurateRip signature  : 80490B0D
        ->Track not present in AccurateRip database.
    Statistics
        Read error                           : 0
        Skipped (treated as error)           : 0
        Edge jitter error (maybe fixed)      : 0
        Atom jitter error (maybe fixed)      : 0
        Drift error (maybe fixed)            : 0
        Dropped bytes error (maybe fixed)    : 0
        Duplicated bytes error (maybe fixed) : 0

Track 05
    Pre-gap length : 00:01:60

    CRC32 hash             : 66C26912
    CRC32 hash (skip zero) : 714281E6
    AccurateRip signature  : 5796E01D
        ->Track not present in AccurateRip database.
    Statistics
        Read error                           : 0
        Skipped (treated as error)           : 0
        Edge jitter error (maybe fixed)      : 0
        Atom jitter error (maybe fixed)      : 0
        Drift error (maybe fixed)            : 0
        Dropped bytes error (maybe fixed)    : 0
        Duplicated bytes error (maybe fixed) : 0

Track 06
    Pre-gap length : 00:01:45

    CRC32 hash             : EC1CE382
    CRC32 hash (skip zero) : E1C5146D
    AccurateRip signature  : ED068B0A
        ->Track not present in AccurateRip database.
    Statistics
        Read error                           : 0
        Skipped (treated as error)           : 0
        Edge jitter error (maybe fixed)      : 0
        Atom jitter error (maybe fixed)      : 0
        Drift error (maybe fixed)            : 0
        Dropped bytes error (maybe fixed)    : 0
        Duplicated bytes error (maybe fixed) : 0

No errors occurred

End of status report
